Coordinates
version=1
nRows=34
nColumns=19
inDegrees=yes

Units are S.I. units (second, meters, Newtons, ...)
If the header above contains a line with 'inDegrees', this indicates whether rotational values are in degrees (yes) or radians (no).

endheader
time	pelvis_tilt	pelvis_list	pelvis_rotation	pelvis_tx	pelvis_ty	pelvis_tz	hip_flexion_r	hip_adduction_r	hip_rotation_r	knee_angle_r	knee_angle_r_beta	ankle_angle_r	hip_flexion_l	hip_adduction_l	hip_rotation_l	knee_angle_l	knee_angle_l_beta	ankle_angle_l
     13.44666667	      3.24455581	      5.66947476	     -1.24880472	      2.30169048	      1.05206538	      1.01017267	    -15.87473282	    -11.30817771	    -10.06471725	     45.31785141	      0.79094572	    -16.52028908	     19.39195954	      8.03480661	     -4.30149304	     18.17640868	      0.31723818	      7.21442119
     13.45333333	      3.69858461	      6.16185125	     -1.40348079	      2.30246332	      1.04817788	      1.00999095	    -15.59976341	    -12.44705463	    -10.29519697	     47.71511869	      0.83278592	    -14.69541789	     18.74248574	      8.52825752	     -5.19173413	     19.13233642	      0.33392226	      6.83449448
     13.46000000	      4.12806844	      6.69721632	     -1.55759714	      2.30315988	      1.04400384	      1.00985939	    -15.26279574	    -13.59681712	    -10.41267793	     50.07728411	      0.87401349	    -12.71374197	     18.14870374	      9.06017984	     -6.06999564	     20.24205399	      0.35329049	      6.45517826
     13.46666667	      4.64824548	      7.21839309	     -1.55388549	      2.30374340	      1.03972319	      1.00951438	    -15.08482260	    -14.68694907	    -10.67624331	     52.30457119	      0.91288698	    -10.70369600	     17.51869039	      9.62838501	     -6.75793185	     21.58468552	      0.37672383	      6.25269521
     13.47333333	      5.15549555	      7.77147484	     -1.53882802	      2.30411397	      1.03531882	      1.00914984	    -14.85709226	    -15.78494779	    -10.86939558	     54.47654958	      0.95079516	     -8.64762567	     16.94874375	     10.24220137	     -7.33417273	     23.07244427	      0.40269012	      6.19178782
     13.48000000	      5.65008777	      8.41039889	     -1.51853475	      2.30437341	      1.03078642	      1.00879933	    -14.58736496	    -16.96135341	    -11.03153866	     56.58495197	      0.98759372	     -6.62521959	     16.47352770	     10.94995629	     -7.83208084	     24.77512077	      0.43240743	      6.39862509
     13.48666667	      5.73252514	      9.25416311	     -1.58859210	      2.30448753	      1.02570783	      1.00849837	    -13.69070452	    -18.44485086	    -11.05089636	     58.84130691	      1.02697454	     -4.75970784	     16.51371656	     11.82287081	     -8.46385283	     26.58083797	      0.46392314	      6.77895706
     13.49333333	      5.92167428	      9.94479327	     -1.44006471	      2.30438420	      1.02079913	      1.00802668	    -13.00351615	    -19.66429809	    -11.21743160	     60.88853276	      1.06270537	     -2.84676169	     16.52515538	     12.60779503	     -8.67825219	     28.67737753	      0.50051466	      7.59929096
     13.50000000	      6.24160462	     10.61147570	     -1.16958117	      2.30399686	      1.01612148	      1.00754211	    -12.46582110	    -20.79488804	    -11.46132248	     62.83311193	      1.09664468	     -1.11276568	     16.41384118	     13.40725164	     -8.67081641	     30.88759409	      0.53909021	      8.72506006
     13.50666667	      6.79888737	     11.20892615	     -0.96638942	      2.30352414	      1.01190629	      1.00716063	    -12.17616445	    -21.83077650	    -11.63620832	     64.59066214	      1.12731972	      0.52693616	     16.02424625	     14.16390498	     -8.48179700	     33.11618899	      0.57798653	     10.11477612
     13.51333333	      6.72550515	     11.84124497	     -0.45596788	      2.30279262	      1.00714505	      1.00653114	    -11.15085657	    -22.87472096	    -11.92754380	     66.45768871	      1.15990548	      2.08388076	     16.31362456	     15.01415016	     -7.99821798	     35.38989741	      0.61767023	     11.55635212
     13.52000000	      7.27681138	     12.34880463	     -0.18896764	      2.30190931	      1.00337351	      1.00632744	    -10.74475631	    -23.76111011	    -12.06248996	     68.07601858	      1.18815067	      3.55589673	     15.80567457	     15.70267871	     -7.56723203	     37.46877155	      0.65395343	     13.20742593
     13.52666667	      7.14675749	     12.83887309	      0.54082976	      2.30079846	      0.99915859	      1.00565264	     -9.64292741	    -24.57767805	    -12.44477753	     69.74969812	      1.21736188	      4.96779481	     15.93642728	     16.50321745	     -6.64192337	     39.47994999	      0.68905512	     14.72349945
     13.53333333	      7.11713278	     13.08970555	      1.13468831	      2.29945815	      0.99543868	      1.00521523	     -8.48535200	    -25.07884887	    -12.52173055	     71.29828296	      1.24438979	      6.26330815	     15.85025783	     17.01288103	     -5.77367027	     41.32619629	      0.72127819	     16.29923650
     13.54000000	      7.20755357	     13.28224164	      1.69214781	      2.29793580	      0.99228706	      1.00497016	     -7.38998258	    -25.47893050	    -12.53592960	     72.71429644	      1.26910389	      7.51021799	     15.45594053	     17.44790506	     -4.88132095	     42.86370327	      0.74811275	     17.78910802
     13.54666667	      7.66075772	     13.41002379	      2.02551846	      2.29621691	      0.99000916	      1.00508125	     -6.54602287	    -25.73937478	    -12.30705990	     73.95155279	      1.29069808	      8.62185414	     14.49123493	     17.74417044	     -4.10963539	     44.03468774	      0.76855029	     19.12182397
     13.55333333	      8.02671600	     13.46157559	      2.42361893	      2.29422490	      0.98805621	      1.00525090	     -5.53916307	    -25.84355570	    -12.02748802	     75.09865673	      1.31071882	      9.64444921	     13.47547741	     17.95455363	     -3.25304788	     44.96063071	      0.78471104	     20.27035674
     13.56000000	      8.19763230	     13.38137116	      2.84464319	      2.29234922	      0.98632088	      1.00538234	     -4.28435781	    -25.81994635	    -11.75941166	     76.09718517	      1.32814643	     10.77087714	     12.49669734	     18.00738258	     -2.39534966	     45.62127194	      0.79624140	     21.50357332
     13.56666667	      7.30923568	     12.88168007	      3.40513620	      2.29026980	      0.98388964	      1.00531444	     -1.60773635	    -25.28957901	    -11.11030783	     77.14730043	      1.34647440	     11.82331051	     12.68656653	     17.60838450	     -1.68769737	     46.29783908	      0.80804973	     22.65879578
     13.57333333	      7.56548754	     12.71973896	      3.67010160	      2.28817046	      0.98318209	      1.00565967	     -0.29858971	    -25.08476304	    -10.63752296	     77.82011609	      1.35821725	     12.69242856	     11.35703481	     17.49265729	     -0.98232147	     46.40674287	      0.80995046	     23.50494372
     13.58000000	      7.66080439	     12.38447220	      3.74684043	      2.28620032	      0.98273373	      1.00621157	      1.31456408	    -24.67575978	     -9.96331358	     78.32201444	      1.36697703	     13.59416640	     10.11708052	     17.12303903	     -0.52171818	     46.29327979	      0.80797015	     24.44582877
     13.58666667	      7.71497196	     12.05272458	      3.88056399	      2.28423881	      0.98268746	      1.00661327	      2.92851417	    -24.18690518	     -9.28830730	     78.63786388	      1.37248964	     14.36130649	      8.80976812	     16.77445502	      0.01077728	     45.97245166	      0.80237065	     25.11199508
     13.59333333	      7.70123486	     11.58636193	      3.71043802	      2.28236637	      0.98289343	      1.00738641	      4.77406824	    -23.50393068	     -8.33241173	     78.80327343	      1.37537658	     15.05276716	      7.57248939	     16.16134668	      0.06450735	     45.51466067	      0.79438069	     25.79070584
     13.60000000	      7.60862534	     11.02578242	      3.10361894	      2.28058243	      0.98338576	      1.00857811	      6.90700309	    -22.61572949	     -6.92559130	     78.80966831	      1.37548819	     15.64469350	      6.41867945	     15.38649480	     -0.38548143	     44.88017280	      0.78330678	     26.25963256
     13.60666667	      7.46150200	     10.61453885	      3.17825076	      2.27907286	      0.98434040	      1.00887549	      8.57149906	    -22.05618867	     -6.51691456	     78.50702583	      1.37020609	     16.20802597	      5.11433621	     14.95650069	      0.07648615	     44.10304558	      0.76974336	     26.57997906
     13.61333333	      7.50784965	      9.98949546	      2.66882480	      2.27771781	      0.98583759	      1.00976841	     10.21706721	    -21.07442937	     -5.55372696	     77.98963575	      1.36117593	     16.69800090	      3.61525533	     14.17079908	     -0.18194038	     43.15165672	      0.75313849	     26.84181729
     13.62000000	      7.17605925	      9.52817231	      2.79599991	      2.27670934	      0.98739266	      1.00983526	     11.85582654	    -20.50806024	     -5.44638705	     77.24256213	      1.34813703	     17.13881638	      2.40461581	     13.68192736	      0.25882092	     42.15919095	      0.73581669	     26.84602237
     13.62666667	      7.42438851	      8.73670190	      2.27183912	      2.27580744	      0.98994175	      1.01075092	     12.97462247	    -19.29043747	     -4.81095509	     76.19751766	      1.32989757	     17.47899599	      0.57078967	     12.74846420	      0.09879687	     40.98205141	      0.71527173	     26.77783429
     13.63333333	      6.95216990	      8.20967944	      2.36336421	      2.27524032	      0.99198978	      1.01074924	     14.57362082	    -18.68066788	     -4.91843110	     75.04245780	      1.30973797	     17.78072280	     -0.52253116	     12.19298640	      0.50702764	     39.86300783	      0.69574074	     26.44283076
     13.64000000	      7.50871507	      7.26090680	      2.12109799	      2.27495384	      0.99580946	      1.01129081	     14.84838993	    -17.41610147	     -5.05092905	     73.39231501	      1.28093754	     17.95543460	     -2.83778769	     11.08781767	      0.64734149	     38.45751825	      0.67121032	     25.91371343
     13.64666667	      7.29839473	      6.36151576	      2.07776421	      2.27481606	      0.99890620	      1.01147464	     15.89533289	    -16.32623044	     -5.37584352	     71.68632793	      1.25116245	     18.04912596	     -4.22295355	     10.07021276	      0.81487567	     37.22601771	      0.64971658	     25.17449905
     13.65333333	      7.33909111	      5.50081641	      2.10522290	      2.27497414	      1.00261947	      1.01158489	     16.46511338	    -15.34386410	     -5.98894243	     69.71530104	      1.21676154	     18.07037178	     -5.94481790	      9.07543956	      1.08087269	     35.85504317	      0.62578856	     24.15728527
     13.66000000	      7.08912150	      4.54706364	      2.07428879	      2.27526413	      1.00619128	      1.01180420	     17.30209075	    -14.23362500	     -6.60761158	     67.58538694	      1.17958753	     17.96975205	     -7.26321667	      7.96643384	      1.11367604	     34.58428903	      0.60360971	     22.93272361
     13.66666667	      7.07325672	      3.63366330	      2.10326576	      2.27575434	      1.01025849	      1.01192871	     17.71235737	    -13.23169187	     -7.49145553	     65.22482035	      1.13838787	     17.79553970	     -8.88173123	      6.88980215	      1.23055064	     33.19080350	      0.57928880	     21.39533808
